<?xml version="1.0" encoding="UTF-8" standalone="no"?>
<!-- Created with Inkscape (http://www.inkscape.org/) -->

<svg
   xmlns:dc="http://purl.org/dc/elements/1.1/"
   xmlns:cc="http://creativecommons.org/ns#"
   xmlns:rdf="http://www.w3.org/1999/02/22-rdf-syntax-ns#"
   xmlns:svg="http://www.w3.org/2000/svg"
   xmlns="http://www.w3.org/2000/svg"
   xmlns:sodipodi="http://sodipodi.sourceforge.net/DTD/sodipodi-0.dtd"
   xmlns:inkscape="http://www.inkscape.org/namespaces/inkscape"
   width="2900"
   height="2900"
   viewBox="0 0 767.29165 767.29169"
   version="1.1"
   id="svg8"
   inkscape:version="0.92.4 (5da689c313, 2019-01-14)"
   sodipodi:docname="start background.svg"
   inkscape:export-filename="C:\Users\nipaa\Hacktiv\Phase0\week6\alam.github.io\image\layer2.png"
   inkscape:export-xdpi="109.66"
   inkscape:export-ydpi="109.66">
  <defs
     id="defs2" />
  <sodipodi:namedview
     id="base"
     pagecolor="#ffffff"
     bordercolor="#666666"
     borderopacity="1.0"
     inkscape:pageopacity="0.0"
     inkscape:pageshadow="2"
     inkscape:zoom="0.12374369"
     inkscape:cx="3295.2774"
     inkscape:cy="1427.9912"
     inkscape:document-units="mm"
     inkscape:current-layer="layer1"
     showgrid="false"
     inkscape:window-width="1680"
     inkscape:window-height="987"
     inkscape:window-x="-8"
     inkscape:window-y="-8"
     inkscape:window-maximized="1"
     units="px" />
  <metadata
     id="metadata5">
    <rdf:RDF>
      <cc:Work
         rdf:about="">
        <dc:format>image/svg+xml</dc:format>
        <dc:type
           rdf:resource="http://purl.org/dc/dcmitype/StillImage" />
        <dc:title></dc:title>
      </cc:Work>
    </rdf:RDF>
  </metadata>
  <g
     inkscape:label="Layer 1"
     inkscape:groupmode="layer"
     id="layer1"
     style="display:inline"
     transform="translate(0,470.29168)">
    <path
       style="opacity:1;fill:#ff0000;fill-opacity:1;stroke:none;stroke-width:10.43374348;stroke-linecap:square;stroke-linejoin:miter;stroke-miterlimit:4;stroke-dasharray:none;stroke-opacity:1"
       d="m 41.307923,-397.96215 39.596603,139.13251 139.131334,-39.59627 -39.59661,-139.13251 z m 10.464845,5.82897 122.837852,-34.9592 34.9592,122.83784 -122.837856,34.9592 z m 4.057491,2.25865 33.161898,116.52254 116.521363,-33.16155 -33.16189,-116.52254 z m 4.014611,2.5189 110.42007,-31.42515 31.23398,109.74835 -110.420084,31.42515 z"
       id="rect4520"
       inkscape:connector-curvature="0"
       inkscape:export-xdpi="250.06"
       inkscape:export-ydpi="250.06" />
    <path
       inkscape:connector-curvature="0"
       id="path4531"
       d="m 202.51966,-434.30352 -8.7746,144.39097 144.38972,8.77455 8.77461,-144.39097 z m 7.9402,8.96902 127.48044,7.74696 -7.74696,127.48044 -127.48044,-7.74696 z m 3.0791,3.4762 -7.34868,120.92648 120.92522,7.3486 7.34868,-120.92648 z m 2.95232,3.70751 114.59334,6.96382 -6.92145,113.89624 -114.59335,-6.96381 z"
       style="opacity:1;fill:#800080;fill-opacity:1;stroke:none;stroke-width:10.43374348;stroke-linecap:square;stroke-linejoin:miter;stroke-miterlimit:4;stroke-dasharray:none;stroke-opacity:1"
       inkscape:export-xdpi="250.06"
       inkscape:export-ydpi="250.06" />
    <path
       style="opacity:1;fill:#000000;fill-opacity:1;stroke:none;stroke-width:10.43374348;stroke-linecap:square;stroke-linejoin:miter;stroke-miterlimit:4;stroke-dasharray:none;stroke-opacity:1"
       d="m 317.34386,-427.27729 22.50378,142.8962 142.89497,-22.50357 -22.50376,-142.89621 z m 9.68429,7.05015 126.16075,-19.86822 19.86822,126.16074 -126.16075,19.86822 z m 3.75503,2.73214 18.84676,119.67461 119.67339,-18.84656 -18.84679,-119.67463 z m 3.681,2.9853 113.40704,-17.85972 17.75108,112.71716 -113.40705,17.85973 z"
       id="path4533"
       inkscape:connector-curvature="0"
       inkscape:export-xdpi="250.06"
       inkscape:export-ydpi="250.06" />
    <path
       inkscape:connector-curvature="0"
       id="path4535"
       d="m 496.23481,-446.2434 -49.89072,135.78168 135.78045,49.89029 49.89072,-135.78166 z m 5.02845,10.87221 119.8794,44.04771 -44.04771,119.87943 -119.87944,-44.04771 z m 1.95047,4.21431 -41.78312,113.71623 113.71501,41.78272 41.78312,-113.71624 z m 1.76263,4.39944 107.76069,39.59489 -39.35406,107.10518 -107.76069,-39.59489 z"
       style="opacity:1;fill:#ffff00;fill-opacity:1;stroke:none;stroke-width:10.43374348;stroke-linecap:square;stroke-linejoin:miter;stroke-miterlimit:4;stroke-dasharray:none;stroke-opacity:1"
       inkscape:export-xdpi="250.06"
       inkscape:export-ydpi="250.06" />
    <path
       style="opacity:1;fill:#00ff00;fill-opacity:1;stroke:none;stroke-width:10.43374348;stroke-linecap:square;stroke-linejoin:miter;stroke-miterlimit:4;stroke-dasharray:none;stroke-opacity:1"
       d="m 598.04167,-428.83569 11.47636,144.20137 144.20018,-11.47626 -11.47636,-144.20138 z m 9.11499,7.77222 127.313,-10.1323 10.13238,127.31305 -127.31308,10.13231 z m 3.53441,3.01213 9.61136,120.76769 120.76647,-9.61129 -9.61144,-120.76769 z m 3.44117,3.25886 114.44288,-9.10802 9.05261,113.7467 -114.44292,9.10802 z"
       id="path4537"
       inkscape:connector-curvature="0"
       inkscape:export-xdpi="250.06"
       inkscape:export-ydpi="250.06" />
    <path
       style="opacity:1;fill:#0000ff;fill-opacity:1;stroke:none;stroke-width:10.43374348;stroke-linecap:square;stroke-linejoin:miter;stroke-miterlimit:4;stroke-dasharray:none;stroke-opacity:1"
       d="m 41.923836,-171.40731 143.571174,17.69355 17.69343,-143.56992 -143.571209,-17.69356 z m 9.443199,-7.36993 15.62135,-126.75664 126.756675,15.62133 -15.62136,126.75668 z m 3.660077,-2.85805 120.239928,14.81825 14.81808,-120.23868 -120.239911,-14.81822 z m 3.883129,-2.71722 14.042176,-113.94274 113.249583,13.95676 -14.04218,113.94274 z"
       id="path4551"
       inkscape:connector-curvature="0"
       inkscape:export-xdpi="250.06"
       inkscape:export-ydpi="250.06" />
    <path
       inkscape:connector-curvature="0"
       id="path4553"
       d="M 58.671946,-25.483258 202.68692,-39.100668 189.06967,-183.1144 45.054671,-169.49702 Z m 7.635973,-9.22944 L 54.285315,-161.8612 181.43382,-173.88375 193.4564,-46.735288 Z m 2.959284,-3.57879 120.611577,-11.40447 -11.40435,-120.610312 -120.6116,11.40448 z m 3.207371,-3.4892 -10.807183,-114.294912 113.599649,-10.74144 10.8072,114.294962 z"
       style="opacity:1;fill:#aa0000;fill-opacity:1;stroke:none;stroke-width:10.43374348;stroke-linecap:square;stroke-linejoin:miter;stroke-miterlimit:4;stroke-dasharray:none;stroke-opacity:1"
       inkscape:export-xdpi="250.06"
       inkscape:export-ydpi="250.06" />
    <path
       style="opacity:1;fill:#ff9955;fill-opacity:1;stroke:none;stroke-width:10.43374348;stroke-linecap:square;stroke-linejoin:miter;stroke-miterlimit:4;stroke-dasharray:none;stroke-opacity:1"
       d="M 6.2971445,70.842073 138.731,129.04012 196.92858,-3.3925986 64.494696,-61.590718 Z M 17.459676,66.496042 68.8418,-50.427668 185.76553,0.95449244 134.38341,117.8782 Z M 21.786621,64.810114 132.69912,113.55065 181.43909,2.6392784 70.526593,-46.101178 Z M 26.2867,63.323208 72.474574,-41.780688 176.93903,4.1262664 130.75115,109.23008 Z"
       id="path4555"
       inkscape:connector-curvature="0"
       inkscape:export-xdpi="250.06"
       inkscape:export-ydpi="250.06" />
    <path
       inkscape:connector-curvature="0"
       id="path4557"
       d="M 31.148954,244.30612 175.78414,241.77581 173.25385,97.141884 28.618639,99.672203 Z m 8.321393,-8.6165 -2.233983,-127.69602 127.696076,-2.23399 2.23399,127.69602 z m 3.22509,-3.34125 121.131023,-2.1191 -2.11912,-121.12975 -121.131026,2.11918 z m 3.465597,-3.23285 -2.008164,-114.78714 114.08888,-1.99593 2.00816,114.78714 z"
       style="opacity:1;fill:#aa8800;fill-opacity:1;stroke:none;stroke-width:10.43374348;stroke-linecap:square;stroke-linejoin:miter;stroke-miterlimit:4;stroke-dasharray:none;stroke-opacity:1"
       inkscape:export-xdpi="250.06"
       inkscape:export-ydpi="250.06" />
    <path
       inkscape:connector-curvature="0"
       id="path4559"
       d="M 307.87714,243.44998 321.09795,99.39807 177.04729,86.177357 163.82646,230.22927 Z m -7.66,-9.20948 L 173.03606,222.56805 184.70848,95.386964 311.88961,107.05937 Z M 297.24668,230.67105 308.31904,110.02853 187.67773,98.956249 176.60539,219.59881 Z m -2.83664,-3.79679 -114.32429,-10.49243 10.42864,-113.6288 114.32428,10.49252 z"
       style="opacity:1;fill:#ccff00;fill-opacity:1;stroke:none;stroke-width:10.43374348;stroke-linecap:square;stroke-linejoin:miter;stroke-miterlimit:4;stroke-dasharray:none;stroke-opacity:1"
       inkscape:export-xdpi="250.06"
       inkscape:export-ydpi="250.06" />
    <path
       style="opacity:1;fill:#008000;fill-opacity:1;stroke:none;stroke-width:10.43374348;stroke-linecap:square;stroke-linejoin:miter;stroke-miterlimit:4;stroke-dasharray:none;stroke-opacity:1"
       d="M 453.20983,222.17266 435.12105,78.650699 291.60038,96.739353 309.68916,240.26124 Z m -9.4624,-7.34538 -126.71317,15.97037 -15.97027,-126.7132 126.71315,-15.970288 z M 440.07839,211.98076 424.92919,91.782102 304.73177,106.93117 319.881,227.12983 Z m -3.5872,-3.09731 L 322.58753,223.23929 308.31904,110.02853 422.2227,95.672725 Z"
       id="path4561"
       inkscape:connector-curvature="0"
       inkscape:export-xdpi="250.06"
       inkscape:export-ydpi="250.06" />
    <path
       inkscape:connector-curvature="0"
       id="path4563"
       d="M 551.11713,271.52699 605.16914,137.34756 470.99089,83.295956 416.9388,217.47539 Z M 546.42618,260.50498 427.96131,212.78329 475.68299,94.318459 594.14782,142.0401 Z M 544.60651,256.23255 589.8747,143.85814 477.50152,98.590398 432.23329,210.96477 Z m -1.62615,-4.45171 -106.48917,-42.89739 42.63648,-105.84135 106.48917,42.8974 z"
       style="opacity:1;fill:#808080;fill-opacity:1;stroke:none;stroke-width:10.43374348;stroke-linecap:square;stroke-linejoin:miter;stroke-miterlimit:4;stroke-dasharray:none;stroke-opacity:1"
       inkscape:export-xdpi="250.06"
       inkscape:export-ydpi="250.06" />
    <path
       style="opacity:1;fill:#ff00ff;fill-opacity:1;stroke:none;stroke-width:10.43374348;stroke-linecap:square;stroke-linejoin:miter;stroke-miterlimit:4;stroke-dasharray:none;stroke-opacity:1"
       d="m 723.72464,241.29355 -7.02641,-144.486591 -144.48534,7.026291 7.02638,144.48659 z m -8.87114,-8.0495 -127.56481,6.20348 -6.20348,-127.56486 127.56485,-6.20348 z m -3.4399,-3.11964 -5.88447,-121.00657 -121.00536,5.88451 5.88459,121.00657 z m -3.33902,-3.36336 -114.66923,5.57638 -5.54244,-113.97167 114.66923,-5.57639 z"
       id="path4565"
       inkscape:connector-curvature="0"
       inkscape:export-xdpi="250.06"
       inkscape:export-ydpi="250.06" />
    <path
       style="opacity:1;fill:#2ad4ff;fill-opacity:1;stroke:none;stroke-width:10.43374348;stroke-linecap:square;stroke-linejoin:miter;stroke-miterlimit:4;stroke-dasharray:none;stroke-opacity:1"
       d="m 600.71259,-163.04921 143.07549,21.33427 21.33407,-143.07401 -143.07549,-21.33416 z m 9.62727,-7.12773 18.83574,-126.31871 126.31903,18.83556 -18.83569,126.31888 z m 3.73151,-2.76416 119.82481,17.86734 17.86715,-119.82338 -119.82481,-17.86721 z m 3.95088,-2.61772 16.93158,-113.5491 112.85862,16.82848 -16.93158,113.5492 z"
       id="path4569"
       inkscape:connector-curvature="0"
       inkscape:export-xdpi="250.06"
       inkscape:export-ydpi="250.06" />
    <path
       inkscape:connector-curvature="0"
       id="path4571"
       d="m 613.74905,-16.746888 144.31446,-9.95527 -9.95522,-144.313152 -144.31442,9.95527 z m 7.86791,-9.0325 -8.78937,-127.412872 127.41287,-8.7893 8.78933,127.412802 z m 3.04921,-3.50249 120.86239,-8.33748 -8.33743,-120.861052 -120.86235,8.3375 z m 3.29503,-3.40658 -7.90092,-114.532562 113.8359,-7.85274 7.90083,114.532572 z"
       style="opacity:1;fill:#8080ff;fill-opacity:1;stroke:none;stroke-width:10.43374348;stroke-linecap:square;stroke-linejoin:miter;stroke-miterlimit:4;stroke-dasharray:none;stroke-opacity:1"
       inkscape:export-xdpi="250.06"
       inkscape:export-ydpi="250.06" />
    <path
       style="opacity:1;fill:#80b3ff;fill-opacity:1;stroke:none;stroke-width:10.43374348;stroke-linecap:square;stroke-linejoin:miter;stroke-miterlimit:4;stroke-dasharray:none;stroke-opacity:1"
       d="M 558.94469,78.217161 689.8577,139.75997 751.40001,8.8481044 620.48701,-52.694788 Z m 11.26926,-4.061127 54.33524,-115.580982 115.58099,54.335239 -54.33516,115.580989 z m 4.36839,-1.575483 109.63887,51.541769 51.54115,-109.637648 -109.63883,-51.54177 z m 4.5364,-1.372137 48.84246,-103.896872 103.26476,48.545348 -48.84241,103.89675 z"
       id="path4573"
       inkscape:connector-curvature="0"
       inkscape:export-xdpi="250.06"
       inkscape:export-ydpi="250.06" />
    <text
       xml:space="preserve"
       style="font-style:normal;font-weight:normal;font-size:84.83174133px;line-height:1.25;font-family:sans-serif;letter-spacing:0px;word-spacing:0px;fill:#000000;fill-opacity:1;stroke:none;stroke-width:2.12079334"
       x="202.74464"
       y="-263.4147"
       id="text4577"
       transform="rotate(-17.459329)"
       inkscape:export-xdpi="250.06"
       inkscape:export-ydpi="250.06"><tspan
         sodipodi:role="line"
         id="tspan4575"
         x="202.74464"
         y="-263.4147"
         style="stroke-width:2.12079334">3</tspan></text>
    <text
       transform="rotate(6.7234368)"
       id="text4581"
       y="-360.36819"
       x="173.10596"
       style="font-style:normal;font-weight:normal;font-size:79.1326828px;line-height:1.25;font-family:sans-serif;letter-spacing:0px;word-spacing:0px;fill:#ff9955;fill-opacity:1;stroke:none;stroke-width:1.97831714"
       xml:space="preserve"
       inkscape:export-xdpi="250.06"
       inkscape:export-ydpi="250.06"><tspan
         style="fill:#ff9955;fill-opacity:1;stroke-width:1.97831714"
         y="-360.36819"
         x="173.10596"
         id="tspan4579"
         sodipodi:role="line">11</tspan></text>
    <text
       xml:space="preserve"
       style="font-style:normal;font-weight:normal;font-size:79.99947357px;line-height:1.25;font-family:sans-serif;letter-spacing:0px;word-spacing:0px;fill:#008000;fill-opacity:1;stroke:none;stroke-width:1.99998665"
       x="406.74411"
       y="-264.88126"
       id="text4585"
       transform="rotate(-9.7129646)"
       inkscape:export-xdpi="250.06"
       inkscape:export-ydpi="250.06"><tspan
         sodipodi:role="line"
         id="tspan4583"
         x="406.74411"
         y="-264.88126"
         style="fill:#008000;fill-opacity:1;stroke-width:1.99998665">91</tspan></text>
    <text
       transform="rotate(24.162055)"
       id="text4589"
       y="-512.12402"
       x="296.10764"
       style="font-style:normal;font-weight:normal;font-size:79.99947357px;line-height:1.25;font-family:sans-serif;letter-spacing:0px;word-spacing:0px;fill:#8080ff;fill-opacity:1;stroke:none;stroke-width:1.99998665"
       xml:space="preserve"
       inkscape:export-xdpi="250.06"
       inkscape:export-ydpi="250.06"><tspan
         style="fill:#8080ff;fill-opacity:1;stroke-width:1.99998665"
         y="-512.12402"
         x="296.10764"
         id="tspan4587"
         sodipodi:role="line">22</tspan></text>
    <text
       xml:space="preserve"
       style="font-style:normal;font-weight:normal;font-size:79.99947357px;line-height:1.25;font-family:sans-serif;letter-spacing:0px;word-spacing:0px;fill:#aa0000;fill-opacity:1;stroke:none;stroke-width:1.99998665"
       x="694.96497"
       y="-226.95653"
       id="text4593"
       transform="rotate(-9.1509138)"
       inkscape:export-xdpi="250.06"
       inkscape:export-ydpi="250.06"><tspan
         sodipodi:role="line"
         id="tspan4591"
         x="694.96497"
         y="-226.95653"
         style="fill:#aa0000;fill-opacity:1;stroke-width:1.99998665">4</tspan></text>
    <text
       transform="rotate(16.432914)"
       id="text4597"
       y="-379.93518"
       x="542.35248"
       style="font-style:normal;font-weight:normal;font-size:79.99947357px;line-height:1.25;font-family:sans-serif;letter-spacing:0px;word-spacing:0px;fill:#800080;fill-opacity:1;stroke:none;stroke-width:1.99998665"
       xml:space="preserve"
       inkscape:export-xdpi="250.06"
       inkscape:export-ydpi="250.06"><tspan
         style="fill:#800080;fill-opacity:1;stroke-width:1.99998665"
         y="-379.93518"
         x="542.35248"
         id="tspan4595"
         sodipodi:role="line">92</tspan></text>
    <text
       xml:space="preserve"
       style="font-style:normal;font-weight:normal;font-size:79.99947357px;line-height:1.25;font-family:sans-serif;letter-spacing:0px;word-spacing:0px;fill:#aa8800;fill-opacity:1;stroke:none;stroke-width:1.99998665"
       x="633.37695"
       y="13.975315"
       id="text4601"
       transform="rotate(-6.7168424)"
       inkscape:export-xdpi="250.06"
       inkscape:export-ydpi="250.06"><tspan
         sodipodi:role="line"
         id="tspan4599"
         x="633.37695"
         y="13.975315"
         style="fill:#aa8800;fill-opacity:1;stroke-width:1.99998665">26</tspan></text>
    <text
       transform="rotate(18.176069)"
       id="text4605"
       y="-133.01308"
       x="611.26941"
       style="font-style:normal;font-weight:normal;font-size:79.99947357px;line-height:1.25;font-family:sans-serif;letter-spacing:0px;word-spacing:0px;fill:#ff0000;fill-opacity:1;stroke:none;stroke-width:1.99998665"
       xml:space="preserve"
       inkscape:export-xdpi="250.06"
       inkscape:export-ydpi="250.06"><tspan
         style="fill:#ff0000;fill-opacity:1;stroke-width:1.99998665"
         y="-133.01308"
         x="611.26941"
         id="tspan4603"
         sodipodi:role="line">7</tspan></text>
    <text
       xml:space="preserve"
       style="font-style:normal;font-weight:normal;font-size:79.99947357px;line-height:1.25;font-family:sans-serif;letter-spacing:0px;word-spacing:0px;fill:#0000ff;fill-opacity:1;stroke:none;stroke-width:1.99998665"
       x="593.49591"
       y="205.78406"
       id="text4609"
       transform="rotate(-0.17165436)"
       inkscape:export-xdpi="250.06"
       inkscape:export-ydpi="250.06"><tspan
         sodipodi:role="line"
         id="tspan4607"
         x="593.49591"
         y="205.78406"
         style="fill:#0000ff;fill-opacity:1;stroke-width:1.99998665">16</tspan></text>
    <text
       transform="rotate(13.483427)"
       id="text4613"
       y="-228.18498"
       x="11.846339"
       style="font-style:normal;font-weight:normal;font-size:79.99947357px;line-height:1.25;font-family:sans-serif;letter-spacing:0px;word-spacing:0px;fill:#80b3ff;fill-opacity:1;stroke:none;stroke-width:1.99998665"
       xml:space="preserve"
       inkscape:export-xdpi="250.06"
       inkscape:export-ydpi="250.06"><tspan
         style="fill:#80b3ff;fill-opacity:1;stroke-width:1.99998665"
         y="-228.18498"
         x="11.846339"
         id="tspan4611"
         sodipodi:role="line">12</tspan></text>
    <text
       xml:space="preserve"
       style="font-style:normal;font-weight:normal;font-size:79.99947357px;line-height:1.25;font-family:sans-serif;letter-spacing:0px;word-spacing:0px;fill:#00ff00;fill-opacity:1;stroke:none;stroke-width:1.99998665"
       x="105.47926"
       y="-64.291145"
       id="text4617"
       transform="rotate(-4.6893505)"
       inkscape:export-xdpi="250.06"
       inkscape:export-ydpi="250.06"><tspan
         sodipodi:role="line"
         id="tspan4615"
         x="105.47926"
         y="-64.291145"
         style="fill:#00ff00;fill-opacity:1;stroke-width:1.99998665">9</tspan></text>
    <text
       transform="rotate(25.436569)"
       id="text4621"
       y="13.347381"
       x="55.866764"
       style="font-style:normal;font-weight:normal;font-size:79.99947357px;line-height:1.25;font-family:sans-serif;letter-spacing:0px;word-spacing:0px;fill:#808080;fill-opacity:1;stroke:none;stroke-width:1.99998665"
       xml:space="preserve"
       inkscape:export-xdpi="250.06"
       inkscape:export-ydpi="250.06"><tspan
         style="fill:#808080;fill-opacity:1;stroke-width:1.99998665"
         y="13.347381"
         x="55.866764"
         id="tspan4619"
         sodipodi:role="line">15</tspan></text>
    <text
       xml:space="preserve"
       style="font-style:normal;font-weight:normal;font-size:79.99947357px;line-height:1.25;font-family:sans-serif;letter-spacing:0px;word-spacing:0px;fill:#2ad4ff;fill-opacity:1;stroke:none;stroke-width:1.99998665"
       x="47.440315"
       y="202.56395"
       id="text4625"
       transform="rotate(-1.6398887)"
       inkscape:export-xdpi="250.06"
       inkscape:export-ydpi="250.06"><tspan
         sodipodi:role="line"
         id="tspan4623"
         x="47.440315"
         y="202.56395"
         style="fill:#2ad4ff;fill-opacity:1;stroke-width:1.99998665">83</tspan></text>
    <text
       transform="rotate(-6.8739898)"
       id="text4629"
       y="232.01198"
       x="298.02927"
       style="font-style:normal;font-weight:normal;font-size:79.99947357px;line-height:1.25;font-family:sans-serif;letter-spacing:0px;word-spacing:0px;fill:#ffff00;fill-opacity:1;stroke:none;stroke-width:1.99998665"
       xml:space="preserve"
       inkscape:export-xdpi="250.06"
       inkscape:export-ydpi="250.06"><tspan
         style="fill:#ffff00;fill-opacity:1;stroke-width:1.99998665"
         y="232.01198"
         x="298.02927"
         id="tspan4627"
         sodipodi:role="line">10</tspan></text>
    <text
       xml:space="preserve"
       style="font-style:normal;font-weight:normal;font-size:79.99947357px;line-height:1.25;font-family:sans-serif;letter-spacing:0px;word-spacing:0px;fill:#ff00ff;fill-opacity:1;stroke:none;stroke-width:1.99998665"
       x="229.64317"
       y="170.44977"
       id="text4633"
       transform="rotate(5.280193)"
       inkscape:export-xdpi="250.06"
       inkscape:export-ydpi="250.06"><tspan
         sodipodi:role="line"
         id="tspan4631"
         x="229.64317"
         y="170.44977"
         style="fill:#ff00ff;fill-opacity:1;stroke-width:1.99998665">4</tspan></text>
    <text
       transform="rotate(22.027128)"
       id="text4637"
       y="2.7650416"
       x="487.23148"
       style="font-style:normal;font-weight:normal;font-size:79.99947357px;line-height:1.25;font-family:sans-serif;letter-spacing:0px;word-spacing:0px;fill:#ccff00;fill-opacity:1;stroke:none;stroke-width:1.99998665"
       xml:space="preserve"
       inkscape:export-xdpi="250.06"
       inkscape:export-ydpi="250.06"><tspan
         style="fill:#ccff00;fill-opacity:1;stroke-width:1.99998665"
         y="2.7650416"
         x="487.23148"
         id="tspan4635"
         sodipodi:role="line">52</tspan></text>
  </g>
</svg>
